<?xml version="1.0" encoding="UTF-8" standalone="no"?>
<!-- Created with Inkscape (http://www.inkscape.org/) -->

<svg
   xmlns:dc="http://purl.org/dc/elements/1.1/"
   xmlns:cc="http://creativecommons.org/ns#"
   xmlns:rdf="http://www.w3.org/1999/02/22-rdf-syntax-ns#"
   xmlns:svg="http://www.w3.org/2000/svg"
   xmlns="http://www.w3.org/2000/svg"
   xmlns:sodipodi="http://sodipodi.sourceforge.net/DTD/sodipodi-0.dtd"
   xmlns:inkscape="http://www.inkscape.org/namespaces/inkscape"
   sodipodi:docname="inv.svg"
   height="16"
   id="svg7384"
   inkscape:version="0.91 r13725"
   version="1.1"
   width="16">
  <metadata
     id="metadata90">
    <rdf:RDF>
      <cc:Work
         rdf:about="">
        <dc:format>image/svg+xml</dc:format>
        <dc:type
           rdf:resource="http://purl.org/dc/dcmitype/StillImage" />
        <dc:title>Gnome Symbolic Icon Theme</dc:title>
      </cc:Work>
    </rdf:RDF>
  </metadata>
  <sodipodi:namedview
     inkscape:bbox-paths="false"
     bordercolor="#666666"
     borderopacity="1"
     inkscape:current-layer="layer14"
     inkscape:cx="4.7057569"
     inkscape:cy="6.5513552"
     gridtolerance="10"
     inkscape:guide-bbox="true"
     guidetolerance="10"
     id="namedview88"
     inkscape:object-nodes="false"
     inkscape:object-paths="false"
     objecttolerance="10"
     pagecolor="#3a3b39"
     inkscape:pageopacity="1"
     inkscape:pageshadow="2"
     showborder="false"
     showgrid="false"
     showguides="true"
     inkscape:snap-bbox="true"
     inkscape:snap-bbox-midpoints="false"
     inkscape:snap-global="true"
     inkscape:snap-grids="true"
     inkscape:snap-nodes="false"
     inkscape:snap-others="false"
     inkscape:snap-to-guides="true"
     inkscape:window-height="704"
     inkscape:window-maximized="1"
     inkscape:window-width="1366"
     inkscape:window-x="0"
     inkscape:window-y="27"
     inkscape:zoom="22.627417">
    <inkscape:grid
       empspacing="2"
       enabled="true"
       id="grid4866"
       originx="-319.9998px"
       originy="84.00012px"
       snapvisiblegridlinesonly="true"
       spacingx="1px"
       spacingy="1px"
       type="xygrid"
       visible="true" />
    <sodipodi:guide
       position="14.760854,2.2539029"
       orientation="0,1"
       id="guide4153" />
  </sodipodi:namedview>
  <title
     id="title9167">Gnome Symbolic Icon Theme</title>
  <defs
     id="defs7386" />
  <g
     inkscape:groupmode="layer"
     id="layer9"
     inkscape:label="status"
     style="display:inline"
     transform="translate(-561,-301.00012)" />
  <g
     inkscape:groupmode="layer"
     id="layer10"
     inkscape:label="devices"
     transform="translate(-561,-301.00012)" />
  <g
     inkscape:groupmode="layer"
     id="layer11"
     inkscape:label="apps"
     transform="translate(-561,-301.00012)" />
  <g
     inkscape:groupmode="layer"
     id="layer13"
     inkscape:label="places"
     transform="translate(-561,-301.00012)" />
  <g
     inkscape:groupmode="layer"
     id="layer14"
     inkscape:label="mimetypes"
     transform="translate(-561,-301.00012)">
    <path
       style="color:#000000;fill:#bebebe;fill-opacity:1;fill-rule:nonzero;stroke:none;stroke-width:1.69602728;marker:none;visibility:visible;display:inline;overflow:visible;enable-background:new"
       d="M -0.00390625 0 L 0 16.005859 L 16.003906 15.996094 L 16 0 L -0.00390625 0 z M 2 2 L 3 2 C 9.07513 2 14 6.92487 14 13 L 14 14 L 13 14 C 12.45347 14 12 13.55016 12 13 C 12 8.02944 7.97056 4 3 4 C 2.45347 4 2 3.55016 2 3 L 2 2 z M 2 6 L 3 6 C 6.866 6 10 9.134 10 13 L 10 14 L 9 14 C 8.45347 14 8 13.55016 8 13 C 8 10.23857 5.76143 8 3 8 C 2.45347 8 2 7.55016 2 7 L 2 6 z M 4 10 A 2.0000014 2.0000009 0 0 1 6 12 A 2.0000014 2.0000009 0 0 1 4 14 A 2.0000014 2.0000009 0 0 1 2 12 A 2.0000014 2.0000009 0 0 1 4 10 z "
       transform="translate(561,301.00012)"
       id="path4983" />
  </g>
  <g
     inkscape:groupmode="layer"
     id="layer15"
     inkscape:label="emblems"
     style="display:inline"
     transform="translate(-561,-301.00012)" />
  <g
     inkscape:groupmode="layer"
     id="g71291"
     inkscape:label="emotes"
     style="display:inline"
     transform="translate(-561,-301.00012)" />
  <g
     inkscape:groupmode="layer"
     id="g4953"
     inkscape:label="categories"
     style="display:inline"
     transform="translate(-561,-301.00012)" />
  <g
     inkscape:groupmode="layer"
     id="layer12"
     inkscape:label="actions"
     style="display:inline"
     transform="translate(-561,-301.00012)" />
</svg>
